<mxfile host="app.diagrams.net" modified="2020-05-05T13:31:54.125Z" agent="5.0 (Windows NT 10.0; Win64; x64) AppleWebKit/537.36 (KHTML, like Gecko) Chrome/77.0.3865.90 Safari/537.36" etag="VOcXxukSXtSCcyUB5pq7" version="13.0.7" type="github">
  <diagram id="3dJP_p92v_L3h6OjJgmu" name="第 1 页">
    <mxGraphModel dx="1422" dy="713" grid="1" gridSize="10" guides="1" tooltips="1" connect="1" arrows="1" fold="1" page="1" pageScale="1" pageWidth="1920" pageHeight="1200" math="0" shadow="0">
      <root>
        <mxCell id="0" />
        <mxCell id="1" parent="0" />
        <mxCell id="QnWnLeeNvjg780qq8Ftu-8" style="edgeStyle=orthogonalEdgeStyle;rounded=0;orthogonalLoop=1;jettySize=auto;html=1;entryX=0;entryY=0.25;entryDx=0;entryDy=0;" edge="1" parent="1" source="QnWnLeeNvjg780qq8Ftu-1" target="QnWnLeeNvjg780qq8Ftu-5">
          <mxGeometry relative="1" as="geometry">
            <Array as="points">
              <mxPoint x="230" y="190" />
              <mxPoint x="470" y="190" />
            </Array>
          </mxGeometry>
        </mxCell>
        <mxCell id="QnWnLeeNvjg780qq8Ftu-9" value="服务发现" style="edgeLabel;html=1;align=center;verticalAlign=middle;resizable=0;points=[];" vertex="1" connectable="0" parent="QnWnLeeNvjg780qq8Ftu-8">
          <mxGeometry x="0.175" y="-3" relative="1" as="geometry">
            <mxPoint as="offset" />
          </mxGeometry>
        </mxCell>
        <mxCell id="QnWnLeeNvjg780qq8Ftu-1" value="服务消费者" style="rounded=0;whiteSpace=wrap;html=1;" vertex="1" parent="1">
          <mxGeometry x="170" y="250" width="120" height="60" as="geometry" />
        </mxCell>
        <mxCell id="QnWnLeeNvjg780qq8Ftu-6" style="edgeStyle=orthogonalEdgeStyle;rounded=0;orthogonalLoop=1;jettySize=auto;html=1;exitX=0.5;exitY=0;exitDx=0;exitDy=0;entryX=1;entryY=0.5;entryDx=0;entryDy=0;" edge="1" parent="1" source="QnWnLeeNvjg780qq8Ftu-3" target="QnWnLeeNvjg780qq8Ftu-5">
          <mxGeometry relative="1" as="geometry" />
        </mxCell>
        <mxCell id="QnWnLeeNvjg780qq8Ftu-7" value="服务注册" style="edgeLabel;html=1;align=center;verticalAlign=middle;resizable=0;points=[];" vertex="1" connectable="0" parent="QnWnLeeNvjg780qq8Ftu-6">
          <mxGeometry x="0.1852" relative="1" as="geometry">
            <mxPoint as="offset" />
          </mxGeometry>
        </mxCell>
        <mxCell id="QnWnLeeNvjg780qq8Ftu-3" value="服务提供者" style="rounded=0;whiteSpace=wrap;html=1;" vertex="1" parent="1">
          <mxGeometry x="950" y="250" width="120" height="60" as="geometry" />
        </mxCell>
        <mxCell id="QnWnLeeNvjg780qq8Ftu-5" value="服务注册中心&lt;br&gt;服务提供者Ip&amp;nbsp; +&amp;nbsp;端口&amp;nbsp;" style="rounded=0;whiteSpace=wrap;html=1;" vertex="1" parent="1">
          <mxGeometry x="470" y="160" width="340" height="60" as="geometry" />
        </mxCell>
        <mxCell id="QnWnLeeNvjg780qq8Ftu-17" style="edgeStyle=orthogonalEdgeStyle;rounded=0;orthogonalLoop=1;jettySize=auto;html=1;exitX=0.5;exitY=1;exitDx=0;exitDy=0;" edge="1" parent="1" source="QnWnLeeNvjg780qq8Ftu-10" target="QnWnLeeNvjg780qq8Ftu-16">
          <mxGeometry relative="1" as="geometry" />
        </mxCell>
        <mxCell id="QnWnLeeNvjg780qq8Ftu-10" value="接口" style="rounded=0;whiteSpace=wrap;html=1;" vertex="1" parent="1">
          <mxGeometry x="200" y="300" width="60" height="30" as="geometry" />
        </mxCell>
        <mxCell id="QnWnLeeNvjg780qq8Ftu-15" style="edgeStyle=orthogonalEdgeStyle;rounded=0;orthogonalLoop=1;jettySize=auto;html=1;exitX=0.5;exitY=1;exitDx=0;exitDy=0;entryX=0;entryY=0.75;entryDx=0;entryDy=0;" edge="1" parent="1" source="QnWnLeeNvjg780qq8Ftu-12" target="QnWnLeeNvjg780qq8Ftu-14">
          <mxGeometry relative="1" as="geometry" />
        </mxCell>
        <mxCell id="QnWnLeeNvjg780qq8Ftu-12" value="端口" style="rounded=0;whiteSpace=wrap;html=1;" vertex="1" parent="1">
          <mxGeometry x="890" y="260" width="70" height="40" as="geometry" />
        </mxCell>
        <mxCell id="QnWnLeeNvjg780qq8Ftu-14" value="接口" style="rounded=0;whiteSpace=wrap;html=1;" vertex="1" parent="1">
          <mxGeometry x="975" y="300" width="70" height="40" as="geometry" />
        </mxCell>
        <mxCell id="QnWnLeeNvjg780qq8Ftu-19" style="edgeStyle=orthogonalEdgeStyle;rounded=0;orthogonalLoop=1;jettySize=auto;html=1;exitX=0.5;exitY=1;exitDx=0;exitDy=0;" edge="1" parent="1" source="QnWnLeeNvjg780qq8Ftu-16" target="QnWnLeeNvjg780qq8Ftu-18">
          <mxGeometry relative="1" as="geometry" />
        </mxCell>
        <mxCell id="QnWnLeeNvjg780qq8Ftu-16" value="proxy&lt;br&gt;动态代理对象" style="rounded=0;whiteSpace=wrap;html=1;" vertex="1" parent="1">
          <mxGeometry x="172" y="380" width="120" height="60" as="geometry" />
        </mxCell>
        <mxCell id="QnWnLeeNvjg780qq8Ftu-18" value="cluster&lt;br&gt;负载均衡" style="rounded=0;whiteSpace=wrap;html=1;" vertex="1" parent="1">
          <mxGeometry x="172" y="520" width="120" height="60" as="geometry" />
        </mxCell>
      </root>
    </mxGraphModel>
  </diagram>
</mxfile>
